<svg width="691" height="572" viewBox="0 0 691 572" fill="none" xmlns="http://www.w3.org/2000/svg">
<g clip-path="url(#clip0_24_35)">
<path d="M368.885 20.3243C391.865 16.6243 418.085 22.4043 441.215 27.6243C464.355 32.8543 486.675 41.9943 507.705 51.6443C528.735 61.2943 549.245 72.5143 567.385 85.5543C585.525 98.5843 602.065 113.604 616.555 129.854C631.045 146.114 644.735 164.644 654.335 183.094C663.935 201.544 669.675 220.894 674.145 240.554C678.605 260.214 681.885 280.854 681.145 301.044C680.415 321.234 676.115 342.094 669.735 361.694C663.355 381.294 654.245 400.944 642.855 418.664C631.475 436.384 617.305 453.044 601.415 467.984C585.525 482.924 566.795 496.364 547.535 508.294C528.275 520.234 507.645 531.324 485.855 539.604C464.065 547.884 440.475 554.204 416.775 557.994C393.075 561.784 367.785 563.184 343.655 562.354C319.535 561.534 295.175 558.354 272.035 553.054C248.885 547.744 226.235 540.044 204.795 530.524C183.355 521.004 161.685 509.064 143.395 495.924C125.105 482.784 109.285 468.004 95.0449 451.684C80.8049 435.374 67.3649 416.724 57.9449 398.034C48.5249 379.344 42.7349 359.274 38.5349 339.524C34.3449 319.774 31.9549 299.664 32.7749 279.524C33.5949 259.394 37.3249 238.044 43.4649 218.704C49.5949 199.364 58.2049 181.174 69.6049 163.484C80.9949 145.784 96.1249 127.904 111.815 112.534C127.505 97.1543 144.455 82.9543 163.765 71.2343C183.065 59.5143 205.315 50.1143 227.635 42.2143C249.955 34.3143 270.205 27.5043 297.675 23.8243C325.135 20.1443 373.215 19.3143 392.435 20.1343C411.655 20.9543 413.745 23.9643 412.975 28.7243M235.135 38.3343C254.805 27.0943 282.705 24.8543 306.635 21.6543C330.575 18.4543 354.805 17.6043 378.765 19.1243C402.725 20.6543 427.305 25.0843 450.415 30.8143C473.515 36.5343 496.865 43.8243 517.395 53.4643C537.915 63.1043 555.805 74.9243 573.575 88.6743C591.335 102.414 610.265 119.244 623.975 135.944C637.695 152.654 647.225 170.484 655.865 188.894C664.495 207.304 671.655 226.404 675.785 246.384C679.915 266.364 681.995 288.484 680.635 308.754C679.265 329.024 674.675 348.624 667.575 367.994C660.485 387.374 650.045 407.384 638.065 425.014C626.075 442.644 611.845 459.194 595.685 473.794C579.515 488.404 561.055 501.054 541.055 512.644C521.045 524.224 497.725 535.714 475.655 543.324C453.575 550.934 432.305 555.394 408.605 558.294C384.905 561.204 357.895 562.344 333.465 560.774C309.025 559.204 284.585 554.554 261.975 548.874C239.375 543.184 218.605 536.274 197.855 526.664C177.105 517.054 155.665 505.064 137.485 491.224C119.295 477.384 102.195 460.344 88.7449 443.624C75.2949 426.894 65.6049 409.324 56.7849 390.884C47.9649 372.444 39.6249 352.514 35.8349 332.984C32.0349 313.454 32.6049 293.604 34.0349 273.714C35.4549 253.824 37.4449 232.924 44.3649 213.634C51.2949 194.344 63.4549 175.834 75.5749 157.994C87.6949 140.144 101.345 121.624 117.105 106.594C132.855 91.5543 150.205 78.9843 170.125 67.7643C190.045 56.5443 225.335 43.3243 236.615 39.2843C247.895 35.2443 236.135 39.3243 237.815 43.5343" stroke="#1E1E1E" stroke-linecap="round"/>
<path d="M319.598 22.8545C319.598 22.8545 318.641 22.8412 316.728 22.8145C314.814 22.7945 312.878 22.7745 310.918 22.7545C308.958 22.7412 305.558 22.8245 300.718 23.0045C295.884 23.1845 291.681 23.4045 288.108 23.6645C284.528 23.9312 281.241 24.4012 278.248 25.0745C275.254 25.7479 270.541 27.0845 264.108 29.0845C257.668 31.0912 252.204 32.7145 247.718 33.9545C243.231 35.1945 239.381 36.3579 236.168 37.4445C232.948 38.5379 230.178 39.5079 227.858 40.3545C225.531 41.2012 223.514 42.0779 221.808 42.9845C220.108 43.8979 218.114 44.9379 215.828 46.1045C213.541 47.2712 211.238 48.3912 208.918 49.4645C206.591 50.5379 203.494 51.8812 199.628 53.4945C195.761 55.1012 192.251 56.6245 189.098 58.0645C185.938 59.5045 182.751 61.1912 179.538 63.1245C176.318 65.0579 173.231 66.7345 170.278 68.1545C167.324 69.5812 164.668 70.9679 162.308 72.3145C159.948 73.6612 157.784 74.9112 155.818 76.0645C153.844 77.2179 152.068 78.3179 150.488 79.3645C148.908 80.4179 147.508 81.4445 146.288 82.4445C145.061 83.4445 143.904 84.4412 142.818 85.4345C141.731 86.4345 140.591 87.6945 139.398 89.2145C138.211 90.7412 136.868 92.3312 135.368 93.9845C133.861 95.6379 132.008 97.4045 129.808 99.2845C127.608 101.165 125.681 102.958 124.028 104.665C122.374 106.378 120.901 107.891 119.608 109.205C118.314 110.518 116.924 112.021 115.438 113.715C113.944 115.401 112.491 116.995 111.078 118.495C109.664 120.001 108.271 121.455 106.898 122.855C105.531 124.261 104.184 125.731 102.858 127.265C101.531 128.798 100.398 130.171 99.4578 131.385C98.5178 132.598 97.3711 134.135 96.0178 135.995C94.6644 137.848 93.3111 139.655 91.9578 141.415C90.6044 143.168 89.4544 144.698 88.5078 146.005C87.5611 147.318 86.7044 148.618 85.9378 149.905C85.1711 151.198 84.4344 152.425 83.7278 153.585C83.0144 154.738 82.3244 155.855 81.6578 156.935C80.9911 158.015 80.2144 159.168 79.3278 160.395C78.4411 161.615 77.7478 162.751 77.2478 163.805C76.7544 164.851 76.2011 165.915 75.5878 166.995C74.9745 168.075 74.2378 169.308 73.3778 170.695C72.5178 172.075 71.7111 173.355 70.9578 174.535C70.2044 175.708 69.3778 177.011 68.4778 178.445C67.5844 179.885 66.7478 181.201 65.9678 182.395C65.1944 183.588 64.4578 184.808 63.7578 186.055C63.0644 187.295 62.3811 188.648 61.7078 190.115C61.0344 191.575 60.4711 192.905 60.0178 194.105C59.5645 195.305 59.1611 196.448 58.8078 197.535C58.4611 198.628 58.1311 199.621 57.8178 200.515C57.5044 201.415 57.2011 202.325 56.9078 203.245C56.6144 204.165 56.3044 205.185 55.9778 206.305C55.6511 207.425 55.3344 208.455 55.0278 209.395C54.7144 210.328 54.5178 211.208 54.4378 212.035C54.3578 212.855 54.1945 213.648 53.9478 214.415C53.6945 215.181 53.5444 215.971 53.4978 216.785C53.4444 217.598 53.2578 218.808 52.9378 220.415C52.6178 222.015 52.2778 223.545 51.9178 225.005C51.5578 226.465 51.3044 227.848 51.1578 229.155C51.0044 230.461 50.9345 231.498 50.9478 232.265C50.9611 233.031 50.9311 234.138 50.8578 235.585C50.7845 237.031 50.6244 238.578 50.3778 240.225C50.1311 241.865 49.8678 243.335 49.5878 244.635C49.3078 245.935 49.0011 247.321 48.6678 248.795C48.3278 250.268 48.0878 251.861 47.9478 253.575C47.8011 255.288 47.6944 257.085 47.6278 258.965C47.5544 260.851 47.4044 262.698 47.1778 264.505C46.9444 266.311 46.8078 267.775 46.7678 268.895C46.7278 270.015 46.6778 271.281 46.6178 272.695C46.5578 274.101 46.4144 275.615 46.1878 277.235C45.9611 278.855 45.8344 280.178 45.8078 281.205C45.7744 282.238 45.7644 283.255 45.7778 284.255C45.7911 285.248 45.8178 286.148 45.8578 286.955C45.9045 287.761 45.9444 288.621 45.9778 289.535C46.0044 290.448 46.0144 291.485 46.0078 292.645C46.0011 293.798 45.9844 295.001 45.9578 296.255C45.9378 297.515 45.9311 298.698 45.9378 299.805C45.9511 300.911 45.9644 301.988 45.9778 303.035C45.9978 304.081 46.0011 305.208 45.9878 306.415C45.9745 307.621 46.0278 308.921 46.1478 310.315C46.2744 311.715 46.3844 313.031 46.4778 314.265C46.5644 315.498 46.6378 316.668 46.6978 317.775C46.7578 318.875 46.9511 320.171 47.2778 321.665C47.6044 323.158 47.9311 324.838 48.2578 326.705C48.5911 328.571 48.9144 330.475 49.2278 332.415C49.5478 334.361 49.8644 336.018 50.1778 337.385C50.4844 338.751 50.8878 340.191 51.3878 341.705C51.8878 343.211 52.4378 344.871 53.0378 346.685C53.6311 348.498 54.1645 349.965 54.6378 351.085C55.1111 352.198 55.6311 353.688 56.1978 355.555C56.7645 357.421 57.2611 359.135 57.6878 360.695C58.1211 362.255 58.6078 363.725 59.1478 365.105C59.6944 366.485 60.4745 368.835 61.4878 372.155C62.5011 375.475 63.4045 378.101 64.1978 380.035C64.9911 381.968 65.6578 383.751 66.1978 385.385C66.7445 387.011 67.3211 388.741 67.9278 390.575C68.5344 392.408 69.2445 394.165 70.0578 395.845C70.8645 397.531 71.5478 399.041 72.1078 400.375C72.6611 401.708 73.2411 403.028 73.8478 404.335C74.4544 405.641 75.0078 406.631 75.5078 407.305C76.0078 407.971 76.4911 408.775 76.9578 409.715C77.4244 410.648 77.8578 411.475 78.2578 412.195C78.6578 412.921 79.1211 413.825 79.6478 414.905C80.1678 415.978 80.7178 416.888 81.2978 417.635C81.8711 418.375 82.5711 419.545 83.3978 421.145C84.2178 422.745 85.0711 424.351 85.9578 425.965C86.8444 427.571 87.7378 428.981 88.6378 430.195C89.5444 431.408 90.3944 432.578 91.1878 433.705C91.9878 434.831 92.9344 436.215 94.0278 437.855C95.1211 439.495 96.1711 440.935 97.1778 442.175C98.1778 443.408 99.2878 444.881 100.508 446.595C101.728 448.315 103.058 449.995 104.498 451.635C105.931 453.281 107.228 454.635 108.388 455.695C109.548 456.755 110.591 457.701 111.518 458.535C112.438 459.361 113.648 460.431 115.148 461.745C116.654 463.051 118.004 464.175 119.198 465.115C120.398 466.048 121.471 466.898 122.418 467.665C123.371 468.438 124.788 469.565 126.668 471.045C128.548 472.518 130.174 473.765 131.548 474.785C132.914 475.798 134.458 476.901 136.178 478.095C137.904 479.295 139.608 480.435 141.288 481.515C142.968 482.595 144.358 483.445 145.458 484.065C146.558 484.685 147.618 485.198 148.638 485.605C149.651 486.005 150.788 486.621 152.048 487.455C153.314 488.281 154.568 489.051 155.808 489.765C157.054 490.471 158.151 491.045 159.098 491.485C160.044 491.925 160.918 492.318 161.718 492.665C162.518 493.005 163.461 493.451 164.548 494.005C165.641 494.551 166.874 495.148 168.248 495.795C169.621 496.441 170.914 497.105 172.128 497.785C173.348 498.465 174.771 499.238 176.398 500.105C178.018 500.971 179.531 501.678 180.938 502.225C182.344 502.771 183.751 503.368 185.158 504.015C186.571 504.655 188.521 505.491 191.008 506.525C193.494 507.558 195.638 508.388 197.438 509.015C199.244 509.641 200.951 510.395 202.558 511.275C204.171 512.148 206.141 513.041 208.468 513.955C210.788 514.868 213.294 515.708 215.988 516.475C218.681 517.241 221.278 517.985 223.778 518.705C226.284 519.418 228.244 519.925 229.658 520.225C231.071 520.518 232.654 520.825 234.408 521.145C236.154 521.465 237.998 521.888 239.938 522.415C241.871 522.948 243.504 523.318 244.838 523.525C246.171 523.731 247.821 524.075 249.788 524.555C251.748 525.041 253.794 525.481 255.928 525.875C258.061 526.261 260.361 526.731 262.828 527.285C265.294 527.845 267.814 528.431 270.388 529.045C272.968 529.665 275.188 530.201 277.048 530.655C278.908 531.108 280.708 531.528 282.448 531.915C284.181 532.295 286.098 532.761 288.198 533.315C290.298 533.861 292.448 534.344 294.648 534.764C296.841 535.178 298.981 535.571 301.068 535.945C303.161 536.318 304.951 536.681 306.438 537.035C307.924 537.388 309.544 537.731 311.298 538.065C313.051 538.405 314.718 538.845 316.298 539.385C317.878 539.931 319.538 540.405 321.278 540.805C323.024 541.211 324.848 541.594 326.748 541.954C328.641 542.321 330.211 542.665 331.458 542.985C332.698 543.305 334.218 543.635 336.018 543.975C337.818 544.315 340.334 544.655 343.568 544.995C346.808 545.328 349.798 545.665 352.538 546.005C355.278 546.345 357.901 546.685 360.408 547.025C362.908 547.365 364.968 547.605 366.588 547.745C368.201 547.885 370.694 548.081 374.068 548.335C377.434 548.588 380.688 548.768 383.828 548.875C386.968 548.988 389.904 549.261 392.638 549.695C395.378 550.128 398.824 550.435 402.978 550.615C407.131 550.788 410.968 551.011 414.488 551.285C418.014 551.551 421.278 551.741 424.278 551.855C427.284 551.968 429.904 552.051 432.138 552.105C434.378 552.151 436.448 552.184 438.348 552.204C440.254 552.224 442.361 552.145 444.668 551.965C446.968 551.785 449.298 551.655 451.658 551.575C454.011 551.495 456.551 551.438 459.278 551.405C461.998 551.371 464.394 551.255 466.468 551.055C468.548 550.848 470.524 550.701 472.398 550.615C474.271 550.528 476.161 550.371 478.068 550.145C479.974 549.918 482.171 549.475 484.658 548.815C487.144 548.155 489.694 547.491 492.308 546.825C494.928 546.151 497.671 545.575 500.538 545.095C503.411 544.608 505.724 544.171 507.478 543.785C509.231 543.398 511.231 542.838 513.478 542.105C515.731 541.378 518.401 540.565 521.488 539.665C524.581 538.771 527.368 538.038 529.848 537.465C532.328 536.891 534.571 536.388 536.578 535.954C538.584 535.514 540.674 535.014 542.848 534.454C545.014 533.894 547.098 533.125 549.098 532.145C551.098 531.165 553.114 530.175 555.148 529.175C557.174 528.175 559.281 527.085 561.468 525.905C563.661 524.718 565.804 523.581 567.898 522.495C569.984 521.415 572.048 520.358 574.088 519.325C576.128 518.285 578.141 517.171 580.128 515.985C582.114 514.791 584.208 513.555 586.408 512.275C588.601 510.995 590.421 509.725 591.868 508.465C593.308 507.205 594.914 505.728 596.688 504.035C598.461 502.341 600.134 500.925 601.708 499.785C603.274 498.638 605.511 496.698 608.418 493.965C611.318 491.231 613.768 488.808 615.768 486.695C617.768 484.581 619.864 482.308 622.058 479.875C624.244 477.448 626.304 475.408 628.238 473.755C630.171 472.108 631.988 470.205 633.688 468.045C635.388 465.891 637.101 463.855 638.828 461.935C640.548 460.015 642.148 458.178 643.628 456.425C645.114 454.671 646.258 453.241 647.058 452.135C647.858 451.021 648.724 449.841 649.658 448.595C650.584 447.341 651.531 446.068 652.498 444.775C653.464 443.475 654.434 442.085 655.408 440.605C656.374 439.118 657.261 437.768 658.068 436.555C658.868 435.335 659.501 434.195 659.968 433.135C660.434 432.075 661.271 430.445 662.478 428.245C663.678 426.045 664.728 424.188 665.628 422.675C666.528 421.161 667.248 419.815 667.788 418.635C668.321 417.455 668.898 416.051 669.518 414.425C670.138 412.798 670.674 411.265 671.128 409.825C671.581 408.378 672.098 406.675 672.678 404.715C673.258 402.761 673.764 400.438 674.198 397.745C674.624 395.051 675.028 392.545 675.408 390.225C675.788 387.905 676.054 385.698 676.208 383.605C676.368 381.511 676.481 378.108 676.548 373.395C676.614 368.688 676.664 364.661 676.698 361.315C676.724 357.961 676.744 354.998 676.758 352.425C676.771 349.858 676.781 346.975 676.788 343.775C676.794 340.575 676.704 337.835 676.518 335.555C676.331 333.275 676.198 330.675 676.118 327.755C676.031 324.835 675.971 321.795 675.938 318.635C675.904 315.481 675.881 312.758 675.868 310.465C675.854 308.171 675.748 305.398 675.548 302.145C675.354 298.898 675.214 296.095 675.128 293.735C675.041 291.381 674.981 288.645 674.948 285.525C674.914 282.411 674.888 279.621 674.868 277.155C674.854 274.681 674.751 271.881 674.558 268.755C674.358 265.628 674.214 262.811 674.128 260.305C674.048 257.805 673.894 254.981 673.668 251.835C673.441 248.688 673.184 245.975 672.898 243.695C672.611 241.415 672.218 238.938 671.718 236.265C671.218 233.591 670.668 230.725 670.068 227.665C669.474 224.605 668.954 222.048 668.508 219.995C668.068 217.935 667.561 215.805 666.988 213.605C666.421 211.398 665.921 209.341 665.488 207.435C665.048 205.521 664.638 203.578 664.258 201.605C663.878 199.638 663.421 197.681 662.888 195.735C662.354 193.788 661.868 192.218 661.428 191.025C660.988 189.838 660.401 188.428 659.668 186.795C658.941 185.161 658.314 183.695 657.788 182.395C657.268 181.095 656.781 179.885 656.328 178.765C655.874 177.651 655.284 176.191 654.558 174.385C653.838 172.585 653.038 170.628 652.158 168.515C651.278 166.401 650.464 164.518 649.718 162.865C648.971 161.211 648.058 159.268 646.978 157.035C645.898 154.801 644.938 152.828 644.098 151.115C643.258 149.395 642.278 147.405 641.158 145.145C640.038 142.885 638.868 140.815 637.648 138.935C636.434 137.061 635.088 135.051 633.608 132.905C632.128 130.758 630.498 128.365 628.718 125.725C626.938 123.078 625.391 120.921 624.078 119.255C622.771 117.581 621.438 115.698 620.078 113.605C618.724 111.511 617.584 109.848 616.658 108.615C615.724 107.381 614.858 106.331 614.058 105.465C613.258 104.598 612.131 103.401 610.678 101.875C609.218 100.348 607.988 99.0645 606.988 98.0245C605.981 96.9845 604.988 96.0779 604.008 95.3045C603.028 94.5312 601.768 93.5912 600.228 92.4845C598.688 91.3779 596.341 89.7245 593.188 87.5245C590.041 85.3245 587.424 83.5679 585.338 82.2545C583.251 80.9479 581.388 79.8245 579.748 78.8845C578.101 77.9512 575.964 76.7079 573.338 75.1545C570.718 73.5945 568.471 72.2979 566.598 71.2645C564.731 70.2245 563.128 69.3945 561.788 68.7745C560.441 68.1545 559.118 67.6212 557.818 67.1745C556.511 66.7279 554.724 66.2212 552.458 65.6545C550.198 65.0879 546.974 64.4912 542.788 63.8645C538.601 63.2445 534.751 62.7079 531.238 62.2545C527.724 61.7945 524.738 61.3712 522.278 60.9845C519.811 60.5912 517.388 60.2179 515.008 59.8645C512.628 59.5112 510.244 59.0645 507.858 58.5245C505.478 57.9845 503.218 57.5045 501.078 57.0845C498.944 56.6712 496.358 56.0845 493.318 55.3245C490.278 54.5712 487.641 53.9412 485.408 53.4345C483.174 52.9212 481.198 52.4612 479.478 52.0545C477.758 51.6412 475.691 51.2579 473.278 50.9045C470.858 50.5445 467.788 50.0945 464.068 49.5545C460.348 49.0212 456.828 48.4445 453.508 47.8245C450.188 47.2112 447.251 46.6812 444.698 46.2345C442.151 45.7812 439.834 45.2612 437.748 44.6745C435.668 44.0945 433.074 43.5912 429.968 43.1645C426.861 42.7445 423.964 42.3445 421.278 41.9645C418.591 41.5912 414.191 41.0379 408.078 40.3045C401.971 39.5712 396.291 39.0479 391.038 38.7345C385.784 38.4279 381.561 38.2079 378.368 38.0745C375.174 37.9412 371.458 37.7512 367.218 37.5045C362.978 37.2579 358.628 37.0812 354.168 36.9745C349.701 36.8679 346.134 36.7945 343.468 36.7545C340.801 36.7079 337.661 36.6745 334.048 36.6545C330.428 36.6345 327.371 36.6212 324.878 36.6145C322.378 36.6079 320.124 36.6012 318.118 36.5945C316.098 36.5945 313.701 36.5945 310.928 36.5945C308.161 36.5879 305.051 36.6812 301.598 36.8745C298.144 37.0612 294.824 37.2912 291.638 37.5645C288.451 37.8379 285.711 38.1279 283.418 38.4345C281.118 38.7345 278.541 39.2345 275.688 39.9345C272.834 40.6279 270.411 41.2212 268.418 41.7145C266.418 42.2012 264.018 42.6512 261.218 43.0645C258.411 43.4712 254.128 44.1412 248.368 45.0745C242.608 46.0079 237.354 46.8645 232.608 47.6445C227.854 48.4245 223.418 49.1712 219.298 49.8845C215.178 50.6045 211.498 51.3979 208.258 52.2645C205.011 53.1312 202.008 53.8512 199.248 54.4245C196.488 54.9979 194.348 55.4945 192.828 55.9145C191.314 56.3412 189.764 56.8312 188.178 57.3845C186.591 57.9445 184.708 58.7212 182.528 59.7145C180.341 60.7079 178.131 61.8845 175.898 63.2445C173.664 64.6045 171.761 65.6812 170.188 66.4745C168.614 67.2679 167.151 68.1945 165.798 69.2545C164.444 70.3079 163.171 71.2612 161.978 72.1145C160.791 72.9745 158.998 74.3445 156.598 76.2245C154.191 78.1045 152.184 79.6412 150.578 80.8345C148.971 82.0345 147.364 83.3512 145.758 84.7845C144.151 86.2245 142.534 87.8145 140.908 89.5545C139.281 91.2945 137.934 92.8179 136.868 94.1245C135.801 95.4312 134.468 97.1245 132.868 99.2045C131.268 101.291 129.548 103.455 127.708 105.695C125.861 107.935 124.371 109.898 123.238 111.585C122.098 113.265 120.031 116.105 117.038 120.105C114.044 124.105 111.238 127.721 108.618 130.955C106.004 134.195 103.858 136.878 102.178 139.005C100.498 141.138 98.3311 143.628 95.6778 146.475C93.0244 149.328 90.3744 152.211 87.7278 155.125C85.0878 158.045 82.8244 160.601 80.9378 162.795C79.0578 164.981 76.8511 167.501 74.3178 170.355C71.7844 173.208 69.3178 176.098 66.9178 179.025C64.5111 181.945 62.0211 184.801 59.4478 187.595C56.8745 190.395 54.2811 193.245 51.6678 196.145C49.0545 199.045 46.9144 201.575 45.2478 203.735C43.5811 205.901 42.0111 208.018 40.5378 210.085C39.0644 212.151 37.7311 214.098 36.5378 215.925C35.3444 217.751 34.3111 219.515 33.4378 221.215C32.5644 222.915 31.4511 224.825 30.0978 226.945C28.7378 229.058 27.6811 230.741 26.9278 231.995C26.1744 233.248 25.4645 234.778 24.7978 236.585C24.1245 238.391 23.4444 240.175 22.7578 241.935C22.0711 243.695 21.3911 245.428 20.7178 247.135C20.0444 248.841 19.3811 250.895 18.7278 253.295C18.0744 255.695 17.5111 257.888 17.0378 259.875C16.5644 261.855 16.0378 264.038 15.4578 266.425C14.8711 268.805 14.4578 270.768 14.2178 272.315C13.9711 273.868 13.7978 275.535 13.6978 277.315C13.5978 279.095 13.5344 280.655 13.5078 281.995C13.4744 283.335 13.2544 285.461 12.8478 288.375C12.4344 291.295 12.1444 294.301 11.9778 297.395C11.8044 300.488 11.6811 303.081 11.6078 305.175C11.5345 307.261 11.4811 309.798 11.4478 312.785C11.4144 315.771 11.5778 318.241 11.9378 320.195C12.3044 322.155 12.7544 324.225 13.2878 326.405C13.8211 328.585 14.3944 331.108 15.0078 333.975C15.6211 336.835 16.2478 339.635 16.8878 342.375C17.5278 345.108 18.0811 347.638 18.5478 349.965C19.0211 352.298 19.4511 354.335 19.8378 356.075C20.2244 357.815 20.6878 359.615 21.2278 361.475C21.7678 363.341 22.4344 365.331 23.2278 367.445C24.0278 369.558 24.6978 371.461 25.2378 373.155C25.7778 374.855 26.6311 376.995 27.7978 379.575C28.9645 382.155 29.9945 384.485 30.8878 386.565C31.7745 388.651 32.5045 390.428 33.0778 391.895C33.6511 393.361 34.2478 394.665 34.8678 395.805C35.4878 396.951 36.5045 399.031 37.9178 402.045C39.3378 405.058 40.9178 408.245 42.6578 411.605C44.3978 414.971 46.4878 418.501 48.9278 422.195C51.3678 425.888 53.8745 429.578 56.4478 433.265C59.0145 436.945 61.0444 439.961 62.5378 442.315C64.0244 444.668 65.7478 447.291 67.7078 450.185C69.6678 453.085 71.5345 455.615 73.3078 457.775C75.0745 459.935 77.3844 462.621 80.2378 465.835C83.0978 469.055 86.7444 472.575 91.1778 476.395C95.6044 480.215 99.0578 483.235 101.538 485.455C104.024 487.675 106.354 489.628 108.528 491.315C110.708 493.001 112.921 494.581 115.168 496.055C117.414 497.521 120.261 499.335 123.708 501.495C127.154 503.655 131.694 506.045 137.328 508.665C142.961 511.285 147.641 513.341 151.368 514.835C155.101 516.335 158.898 517.685 162.758 518.885C166.618 520.085 170.524 521.328 174.478 522.615C178.438 523.895 182.491 525.091 186.638 526.205C190.784 527.318 195.561 528.591 200.968 530.025C206.374 531.458 210.888 532.571 214.508 533.365C218.128 534.165 222.238 535.021 226.838 535.935C231.438 536.841 236.151 537.778 240.978 538.745C245.811 539.705 250.884 540.774 256.198 541.954C261.518 543.128 266.634 544.155 271.548 545.035C276.468 545.915 280.351 546.541 283.198 546.915C286.038 547.288 289.124 547.745 292.458 548.285C295.798 548.831 299.511 549.411 303.598 550.025C307.684 550.631 311.464 551.258 314.938 551.905C318.411 552.551 321.734 553.108 324.908 553.575C328.088 554.035 330.634 554.361 332.548 554.555C334.461 554.755 336.318 554.991 338.118 555.264C339.918 555.544 342.334 555.838 345.368 556.145C348.394 556.451 351.798 556.765 355.578 557.085C359.358 557.405 362.428 557.635 364.788 557.775C367.154 557.908 369.614 558.101 372.168 558.355C374.728 558.601 377.301 558.778 379.888 558.885C382.474 558.991 385.561 559.065 389.148 559.105C392.734 559.151 396.054 559.184 399.108 559.204C402.168 559.224 405.018 559.238 407.658 559.245C410.298 559.251 413.231 559.258 416.458 559.264C419.684 559.264 422.651 559.268 425.358 559.275C428.071 559.275 430.658 559.178 433.118 558.985C435.578 558.798 438.111 558.665 440.718 558.585C443.331 558.498 445.941 558.345 448.548 558.125C451.161 557.898 453.788 557.641 456.428 557.355C459.068 557.068 461.341 556.861 463.248 556.735C465.161 556.615 466.884 556.435 468.418 556.195C469.944 555.955 471.308 555.675 472.508 555.355C473.708 555.041 474.951 554.721 476.238 554.395C477.531 554.061 478.764 553.801 479.938 553.615C481.111 553.421 482.078 553.178 482.838 552.885C483.598 552.591 484.664 552.315 486.038 552.055C487.411 551.788 488.204 551.658 488.418 551.665C488.631 551.671 488.834 551.711 489.028 551.785C489.228 551.851 489.411 551.951 489.578 552.085C489.744 552.218 489.884 552.375 489.998 552.555C490.111 552.728 490.194 552.918 490.248 553.125C490.301 553.331 490.318 553.538 490.298 553.745C490.284 553.958 490.234 554.161 490.148 554.355C490.068 554.548 489.958 554.725 489.818 554.885C489.678 555.038 489.514 555.168 489.328 555.275C489.148 555.381 488.954 555.455 488.748 555.495C488.541 555.535 488.331 555.541 488.118 555.514C487.911 555.488 487.714 555.428 487.528 555.335C487.334 555.241 487.164 555.121 487.018 554.975C486.864 554.821 486.741 554.651 486.648 554.465C486.554 554.278 486.491 554.078 486.458 553.865C486.431 553.658 486.438 553.451 486.478 553.245C486.511 553.038 486.581 552.841 486.688 552.655C486.788 552.468 486.918 552.305 487.078 552.165C487.231 552.025 487.404 551.911 487.598 551.825C487.791 551.745 487.994 551.695 488.208 551.675C488.421 551.655 488.628 551.671 488.828 551.725C489.034 551.771 489.228 551.851 489.408 551.965C489.588 552.078 489.744 552.218 489.878 552.385C490.011 552.545 490.114 552.725 490.188 552.925C490.261 553.125 490.301 553.328 490.308 553.535C490.314 553.748 490.288 553.955 490.228 554.155C490.161 554.361 490.068 554.548 489.948 554.715C489.828 554.888 489.681 555.038 489.508 555.165C489.334 555.285 489.148 555.378 488.948 555.445C488.748 555.505 488.648 555.535 488.648 555.535C488.648 555.535 488.031 555.588 486.798 555.695C485.571 555.795 484.478 555.948 483.518 556.155C482.558 556.361 481.541 556.505 480.468 556.585C479.394 556.658 478.208 556.848 476.908 557.155C475.608 557.461 474.318 557.751 473.038 558.025C471.751 558.298 470.304 558.558 468.698 558.805C467.091 559.051 465.351 559.235 463.478 559.355C461.604 559.475 459.338 559.678 456.678 559.965C454.018 560.258 451.361 560.518 448.708 560.745C446.048 560.971 443.434 561.124 440.868 561.204C438.294 561.284 435.744 561.421 433.218 561.615C430.691 561.801 428.071 561.895 425.358 561.895C422.644 561.895 419.674 561.891 416.448 561.885C413.221 561.885 410.288 561.881 407.648 561.875C405.001 561.868 402.148 561.855 399.088 561.835C396.021 561.815 392.684 561.781 389.078 561.735C385.464 561.688 382.341 561.611 379.708 561.505C377.068 561.398 374.488 561.221 371.968 560.975C369.441 560.721 366.984 560.528 364.598 560.395C362.211 560.255 359.121 560.021 355.328 559.695C351.541 559.375 348.108 559.058 345.028 558.745C341.954 558.438 339.541 558.148 337.788 557.875C336.028 557.601 334.174 557.365 332.228 557.165C330.274 556.965 327.691 556.631 324.478 556.165C321.271 555.698 317.948 555.141 314.508 554.495C311.061 553.855 307.288 553.228 303.188 552.615C299.094 552.001 295.391 551.425 292.078 550.885C288.771 550.345 285.674 549.885 282.788 549.505C279.908 549.131 275.991 548.501 271.038 547.615C266.084 546.728 260.958 545.698 255.658 544.525C250.364 543.351 245.301 542.285 240.468 541.325C235.641 540.358 230.918 539.418 226.298 538.505C221.678 537.585 217.541 536.725 213.888 535.925C210.228 535.118 205.694 533.998 200.288 532.565C194.881 531.131 190.081 529.851 185.888 528.725C181.701 527.598 177.634 526.395 173.688 525.115C169.741 523.835 165.804 522.581 161.878 521.355C157.951 520.128 154.101 518.758 150.328 517.245C146.554 515.731 141.804 513.641 136.078 510.975C130.351 508.301 125.754 505.881 122.288 503.715C118.828 501.541 115.944 499.701 113.638 498.195C111.331 496.681 109.068 495.061 106.848 493.335C104.621 491.608 102.274 489.638 99.8078 487.425C97.3345 485.218 93.8411 482.165 89.3278 478.265C84.8144 474.365 81.1178 470.791 78.2378 467.545C75.3578 464.305 73.0078 461.571 71.1878 459.345C69.3744 457.125 67.4778 454.555 65.4978 451.635C63.5244 448.721 61.8011 446.105 60.3278 443.785C58.8611 441.465 56.8344 438.455 54.2478 434.755C51.6611 431.055 49.1211 427.318 46.6278 423.545C44.1344 419.778 42.0078 416.198 40.2478 412.805C38.4878 409.411 36.9044 406.225 35.4978 403.245C34.0844 400.271 33.0644 398.161 32.4378 396.915C31.8044 395.675 31.2078 394.331 30.6478 392.885C30.0811 391.445 29.3578 389.691 28.4778 387.625C27.5978 385.558 26.5544 383.188 25.3478 380.515C24.1478 377.841 23.2844 375.678 22.7578 374.025C22.2311 372.365 21.5578 370.448 20.7378 368.275C19.9178 366.095 19.2311 364.048 18.6778 362.135C18.1244 360.215 17.6511 358.375 17.2578 356.615C16.8644 354.855 16.4378 352.825 15.9778 350.525C15.5178 348.225 14.9644 345.698 14.3178 342.945C13.6711 340.198 13.0444 337.405 12.4378 334.565C11.8244 331.725 11.2444 329.188 10.6978 326.955C10.1511 324.721 9.69111 322.545 9.31778 320.425C8.93778 318.305 8.76111 315.738 8.78778 312.725C8.82111 309.718 8.87111 307.161 8.93777 305.055C9.01111 302.948 9.13443 300.308 9.30777 297.135C9.47443 293.961 9.75443 290.965 10.1478 288.145C10.5411 285.318 10.7711 283.225 10.8378 281.865C10.8978 280.511 10.9811 278.901 11.0878 277.035C11.2011 275.168 11.3845 273.425 11.6378 271.805C11.8978 270.178 12.3178 268.178 12.8978 265.805C13.4844 263.425 14.0178 261.231 14.4978 259.225C14.9778 257.211 15.5578 254.958 16.2378 252.465C16.9245 249.978 17.6044 247.881 18.2778 246.175C18.9511 244.475 19.6278 242.751 20.3078 241.005C20.9878 239.251 21.6978 237.401 22.4378 235.455C23.1778 233.508 23.9311 231.895 24.6978 230.615C25.4644 229.335 26.5044 227.671 27.8178 225.625C29.1378 223.585 30.2545 221.675 31.1678 219.895C32.0878 218.115 33.1544 216.298 34.3678 214.445C35.5811 212.591 36.9344 210.618 38.4278 208.525C39.9211 206.431 41.5211 204.275 43.2278 202.055C44.9411 199.841 47.1078 197.281 49.7278 194.375C52.3478 191.468 54.9278 188.635 57.4678 185.875C60.0078 183.115 62.4911 180.261 64.9178 177.315C67.3445 174.368 69.8178 171.471 72.3378 168.625C74.8578 165.785 77.0678 163.261 78.9678 161.055C80.8678 158.848 83.1444 156.281 85.7978 153.355C88.4511 150.428 91.0811 147.568 93.6878 144.775C96.2944 141.975 98.4378 139.505 100.118 137.365C101.804 135.225 103.948 132.551 106.548 129.345C109.148 126.131 111.931 122.541 114.898 118.575C117.871 114.608 119.948 111.755 121.128 110.015C122.314 108.268 123.821 106.285 125.648 104.065C127.468 101.845 129.188 99.6812 130.808 97.5745C132.428 95.4679 133.791 93.7412 134.898 92.3945C135.998 91.0479 137.388 89.4745 139.068 87.6745C140.754 85.8812 142.431 84.2412 144.098 82.7545C145.764 81.2679 147.394 79.9345 148.988 78.7545C150.574 77.5745 152.584 76.0312 155.018 74.1245C157.444 72.2245 159.241 70.8545 160.408 70.0145C161.574 69.1745 162.904 68.1845 164.398 67.0445C165.891 65.8979 167.394 64.9445 168.908 64.1845C170.421 63.4179 172.344 62.3312 174.678 60.9245C177.004 59.5179 179.294 58.3012 181.548 57.2745C183.801 56.2545 185.748 55.4579 187.388 54.8845C189.028 54.3112 190.634 53.8045 192.208 53.3645C193.788 52.9245 195.931 52.4245 198.638 51.8645C201.351 51.3112 204.368 50.5912 207.688 49.7045C211.008 48.8179 214.734 48.0145 218.868 47.2945C222.994 46.5812 227.431 45.8345 232.178 45.0545C236.931 44.2745 242.194 43.4145 247.968 42.4745C253.741 41.5412 257.991 40.8779 260.718 40.4845C263.438 40.0912 265.798 39.6512 267.798 39.1645C269.791 38.6712 272.261 38.0679 275.208 37.3545C278.154 36.6412 280.794 36.1312 283.128 35.8245C285.468 35.5112 288.244 35.2179 291.458 34.9445C294.671 34.6712 298.028 34.4379 301.528 34.2445C305.028 34.0579 308.164 33.9645 310.938 33.9645C313.704 33.9645 316.098 33.9679 318.118 33.9745C320.131 33.9745 322.388 33.9779 324.888 33.9845C327.381 33.9979 330.444 34.0112 334.078 34.0245C337.704 34.0445 340.851 34.0779 343.518 34.1245C346.191 34.1712 349.774 34.2479 354.268 34.3545C358.761 34.4612 363.121 34.6379 367.348 34.8845C371.574 35.1312 375.291 35.3212 378.498 35.4545C381.704 35.5879 385.961 35.8112 391.268 36.1245C396.574 36.4379 402.291 36.9612 408.418 37.6945C414.544 38.4345 418.951 38.9912 421.638 39.3645C424.318 39.7445 427.271 40.1579 430.498 40.6045C433.718 41.0512 436.328 41.5579 438.328 42.1245C440.328 42.6845 442.608 43.1912 445.168 43.6445C447.721 44.0979 450.644 44.6279 453.938 45.2345C457.224 45.8479 460.728 46.4212 464.448 46.9545C468.174 47.4945 471.281 47.9512 473.768 48.3245C476.261 48.6979 478.364 49.0879 480.078 49.4945C481.791 49.9012 483.771 50.3612 486.018 50.8745C488.264 51.3879 490.888 52.0179 493.888 52.7645C496.881 53.5112 499.461 54.0945 501.628 54.5145C503.788 54.9345 506.028 55.4079 508.348 55.9345C510.668 56.4679 513.021 56.9112 515.408 57.2645C517.794 57.6179 520.208 57.9879 522.648 58.3745C525.088 58.7612 528.074 59.1845 531.608 59.6445C535.134 60.0979 539.034 60.6445 543.308 61.2845C547.581 61.9179 550.881 62.5312 553.208 63.1245C555.541 63.7112 557.404 64.2412 558.798 64.7145C560.191 65.1945 561.588 65.7579 562.988 66.4045C564.394 67.0512 566.041 67.8979 567.928 68.9445C569.821 69.9912 572.074 71.2845 574.688 72.8245C577.301 74.3645 579.448 75.6079 581.128 76.5545C582.814 77.5079 584.721 78.6445 586.848 79.9645C588.981 81.2912 591.631 83.0512 594.798 85.2445C597.958 87.4312 600.344 89.0879 601.958 90.2145C603.564 91.3412 604.884 92.3412 605.918 93.2145C606.944 94.0879 607.968 95.0412 608.988 96.0745C610.014 97.1079 611.281 98.4012 612.788 99.9545C614.301 101.501 615.441 102.761 616.208 103.735C616.981 104.701 617.851 105.825 618.818 107.105C619.784 108.391 620.921 110.048 622.228 112.075C623.534 114.101 624.864 115.975 626.218 117.695C627.564 119.415 629.128 121.591 630.908 124.225C632.688 126.865 634.324 129.265 635.818 131.425C637.311 133.591 638.694 135.655 639.968 137.615C641.241 139.575 642.441 141.685 643.568 143.945C644.694 146.205 645.684 148.195 646.538 149.915C647.391 151.635 648.368 153.615 649.468 155.855C650.568 158.101 651.504 160.061 652.278 161.735C653.058 163.408 653.898 165.298 654.798 167.405C655.704 169.518 656.544 171.488 657.318 173.315C658.091 175.141 658.661 176.618 659.028 177.745C659.388 178.865 659.821 180.058 660.328 181.325C660.828 182.585 661.464 184.068 662.238 185.775C663.018 187.481 663.608 188.965 664.008 190.225C664.414 191.485 664.894 193.121 665.448 195.135C665.994 197.148 666.454 199.125 666.828 201.065C667.201 203.005 667.604 204.921 668.038 206.815C668.471 208.701 668.974 210.761 669.548 212.995C670.121 215.228 670.631 217.385 671.078 219.465C671.531 221.538 672.054 224.108 672.648 227.175C673.248 230.241 673.801 233.138 674.308 235.865C674.821 238.591 675.221 241.115 675.508 243.435C675.801 245.761 676.061 248.515 676.288 251.695C676.514 254.875 676.671 257.705 676.758 260.185C676.838 262.658 676.978 265.485 677.178 268.665C677.378 271.845 677.484 274.668 677.498 277.135C677.511 279.595 677.538 282.371 677.578 285.465C677.611 288.558 677.671 291.275 677.758 293.615C677.838 295.948 677.978 298.765 678.178 302.065C678.378 305.358 678.484 308.151 678.498 310.445C678.511 312.738 678.534 315.451 678.568 318.585C678.601 321.725 678.658 324.735 678.738 327.615C678.818 330.488 678.954 333.101 679.148 335.455C679.341 337.808 679.434 340.585 679.428 343.785C679.421 346.985 679.411 349.871 679.398 352.445C679.391 355.018 679.371 357.985 679.338 361.345C679.311 364.698 679.264 368.755 679.198 373.515C679.131 378.275 679.014 381.741 678.848 383.915C678.688 386.088 678.421 388.331 678.048 390.645C677.674 392.965 677.264 395.528 676.818 398.335C676.371 401.135 675.861 403.525 675.288 405.505C674.714 407.478 674.198 409.215 673.738 410.715C673.278 412.215 672.734 413.815 672.108 415.515C671.474 417.215 670.861 418.688 670.268 419.935C669.668 421.181 668.931 422.551 668.058 424.045C667.191 425.538 666.174 427.371 665.008 429.545C663.848 431.725 662.968 433.375 662.368 434.495C661.768 435.615 661.068 436.781 660.268 437.995C659.468 439.208 658.568 440.581 657.568 442.115C656.568 443.641 655.584 445.051 654.618 446.345C653.651 447.645 652.708 448.915 651.788 450.155C650.868 451.401 649.984 452.601 649.138 453.755C648.284 454.915 647.111 456.381 645.618 458.155C644.118 459.928 642.521 461.755 640.828 463.635C639.141 465.508 637.388 467.585 635.568 469.865C633.754 472.138 631.921 474.061 630.068 475.635C628.214 477.208 626.188 479.215 623.988 481.655C621.781 484.101 619.661 486.401 617.628 488.555C615.588 490.708 613.074 493.185 610.088 495.985C607.101 498.791 604.868 500.728 603.388 501.795C601.901 502.868 600.258 504.261 598.458 505.975C596.651 507.695 594.961 509.231 593.388 510.585C591.814 511.945 589.931 513.261 587.738 514.535C585.551 515.815 583.438 517.061 581.398 518.275C579.358 519.495 577.321 520.621 575.288 521.655C573.254 522.688 571.201 523.745 569.128 524.825C567.048 525.898 564.898 527.035 562.678 528.235C560.458 529.435 558.331 530.535 556.298 531.535C554.264 532.541 552.168 533.561 550.008 534.595C547.848 535.635 545.664 536.438 543.458 537.005C541.244 537.578 539.141 538.081 537.148 538.514C535.154 538.948 532.941 539.445 530.508 540.005C528.074 540.571 525.324 541.298 522.258 542.185C519.198 543.065 516.501 543.881 514.168 544.635C511.841 545.388 509.778 545.965 507.978 546.365C506.178 546.758 503.878 547.191 501.078 547.665C498.284 548.131 495.581 548.698 492.968 549.365C490.361 550.031 487.754 550.705 485.148 551.385C482.541 552.071 480.254 552.531 478.288 552.764C476.321 552.991 474.421 553.148 472.588 553.235C470.754 553.321 468.764 553.468 466.618 553.675C464.471 553.881 462.044 554.001 459.338 554.035C456.631 554.068 454.118 554.124 451.798 554.204C449.484 554.278 447.138 554.408 444.758 554.595C442.371 554.775 440.221 554.855 438.308 554.835C436.394 554.815 434.314 554.781 432.068 554.735C429.814 554.688 427.168 554.605 424.128 554.485C421.088 554.371 417.821 554.181 414.328 553.915C410.834 553.648 406.961 553.421 402.708 553.235C398.454 553.048 395.014 552.745 392.388 552.325C389.761 551.898 386.861 551.631 383.688 551.525C380.508 551.425 377.228 551.248 373.848 550.995C370.468 550.748 367.948 550.551 366.288 550.405C364.634 550.265 362.558 550.031 360.058 549.704C357.564 549.378 354.954 549.048 352.228 548.715C349.508 548.388 346.491 548.058 343.178 547.725C339.871 547.391 337.268 547.055 335.368 546.715C333.474 546.375 331.954 546.018 330.808 545.645C329.661 545.271 328.124 544.898 326.198 544.525C324.271 544.151 322.388 543.751 320.548 543.325C318.721 542.898 317.078 542.428 315.618 541.915C314.158 541.408 312.534 540.981 310.748 540.635C308.954 540.295 307.338 539.951 305.898 539.605C304.464 539.258 302.698 538.901 300.598 538.535C298.498 538.161 296.321 537.758 294.068 537.325C291.814 536.898 289.654 536.411 287.588 535.865C285.521 535.325 283.608 534.861 281.848 534.475C280.094 534.088 278.288 533.668 276.428 533.215C274.574 532.768 272.364 532.235 269.798 531.615C267.231 531.001 264.731 530.421 262.298 529.875C259.864 529.328 257.554 528.858 255.368 528.465C253.188 528.065 251.151 527.631 249.258 527.165C247.364 526.698 245.704 526.345 244.278 526.105C242.851 525.871 241.208 525.501 239.348 524.995C237.488 524.481 235.671 524.065 233.898 523.745C232.124 523.425 230.498 523.111 229.018 522.805C227.544 522.491 225.554 521.978 223.048 521.265C220.548 520.558 217.911 519.808 215.138 519.015C212.358 518.228 209.754 517.358 207.328 516.405C204.894 515.451 202.938 514.571 201.458 513.765C199.984 512.965 198.318 512.248 196.458 511.615C194.598 510.988 192.408 510.161 189.888 509.135C187.368 508.115 185.424 507.308 184.058 506.715C182.684 506.121 181.234 505.545 179.708 504.985C178.181 504.431 176.581 503.741 174.908 502.915C173.228 502.081 171.818 501.358 170.678 500.745C169.538 500.138 168.234 499.538 166.768 498.945C165.294 498.351 164.008 497.778 162.908 497.225C161.808 496.671 160.878 496.165 160.118 495.705C159.364 495.245 158.534 494.738 157.628 494.185C156.721 493.638 155.611 493.008 154.298 492.295C152.984 491.588 151.748 490.875 150.588 490.155C149.434 489.441 148.321 488.818 147.248 488.285C146.181 487.751 145.094 487.145 143.988 486.465C142.881 485.778 141.471 484.895 139.758 483.815C138.044 482.728 136.311 481.585 134.558 480.385C132.804 479.191 131.224 478.091 129.818 477.085C128.411 476.071 126.734 474.821 124.788 473.335C122.841 471.848 121.438 470.708 120.578 469.915C119.724 469.121 118.671 468.248 117.418 467.295C116.171 466.341 114.768 465.205 113.208 463.885C111.654 462.565 110.448 461.468 109.588 460.595C108.728 459.728 107.678 458.731 106.438 457.605C105.198 456.485 103.828 455.071 102.328 453.365C100.821 451.658 99.4678 449.978 98.2678 448.325C97.0678 446.671 95.9278 445.201 94.8478 443.915C93.7678 442.628 92.6711 441.185 91.5578 439.585C90.4445 437.991 89.4911 436.651 88.6978 435.565C87.9045 434.478 86.9911 433.288 85.9578 431.995C84.9244 430.701 83.9211 429.258 82.9478 427.665C81.9745 426.078 81.0678 424.578 80.2278 423.165C79.3811 421.751 78.6378 420.568 77.9978 419.615C77.3511 418.668 76.7578 417.645 76.2178 416.545C75.6711 415.438 75.2444 414.485 74.9378 413.685C74.6244 412.885 74.3211 412.055 74.0278 411.195C73.7278 410.341 73.3744 409.498 72.9678 408.665C72.5611 407.825 72.0478 406.735 71.4278 405.395C70.8011 404.061 70.2211 402.748 69.6878 401.455C69.1478 400.168 68.4511 398.631 67.5978 396.845C66.7378 395.058 66.0011 393.251 65.3878 391.425C64.7744 389.591 64.2044 387.888 63.6778 386.315C63.1511 384.741 62.4711 382.951 61.6378 380.945C60.8111 378.938 59.8978 376.311 58.8978 373.065C57.8978 369.818 57.1011 367.461 56.5078 365.995C55.9144 364.535 55.3978 363.041 54.9578 361.515C54.5111 359.988 54.0011 358.328 53.4278 356.535C52.8478 354.741 52.3445 353.255 51.9178 352.075C51.4911 350.888 50.9678 349.395 50.3478 347.595C49.7344 345.795 49.1511 344.101 48.5978 342.515C48.0444 340.928 47.5844 339.425 47.2178 338.005C46.8511 336.585 46.4844 334.918 46.1178 333.005C45.7444 331.091 45.3611 329.235 44.9678 327.435C44.5744 325.641 44.1444 323.881 43.6778 322.155C43.2111 320.428 42.9744 319.031 42.9678 317.965C42.9544 316.898 42.9111 315.785 42.8378 314.625C42.7644 313.458 42.6011 312.101 42.3478 310.555C42.0878 309.008 41.9511 307.628 41.9378 306.415C41.9244 305.208 41.9244 304.081 41.9378 303.035C41.9578 301.988 41.9745 300.911 41.9878 299.805C42.0011 298.691 41.9944 297.505 41.9678 296.245C41.9478 294.991 41.9344 293.785 41.9278 292.625C41.9278 291.458 41.9511 290.411 41.9978 289.485C42.0444 288.558 42.1044 287.681 42.1778 286.855C42.2511 286.028 42.3311 285.095 42.4178 284.055C42.5111 283.008 42.6311 281.951 42.7778 280.885C42.9244 279.818 43.0911 278.525 43.2778 277.005C43.4644 275.485 43.5678 273.991 43.5878 272.525C43.6078 271.058 43.6878 269.751 43.8278 268.605C43.9745 267.451 44.1478 266.015 44.3478 264.295C44.5478 262.568 44.6678 260.741 44.7078 258.815C44.7478 256.888 44.8278 254.998 44.9478 253.145C45.0678 251.298 45.2678 249.625 45.5478 248.125C45.8278 246.625 46.1044 245.275 46.3778 244.075C46.6511 242.875 46.8678 241.511 47.0278 239.985C47.1878 238.458 47.2511 236.941 47.2178 235.435C47.1911 233.921 47.2378 232.771 47.3578 231.985C47.4711 231.198 47.5778 230.081 47.6778 228.635C47.7711 227.195 47.9311 225.765 48.1578 224.345C48.3844 222.931 48.5744 221.445 48.7278 219.885C48.8811 218.318 49.1678 216.715 49.5878 215.075C50.0011 213.435 50.3111 212.078 50.5178 211.005C50.7245 209.931 51.0078 208.988 51.3678 208.175C51.7278 207.355 52.0811 206.341 52.4278 205.135C52.7811 203.935 53.1545 202.861 53.5478 201.915C53.9411 200.968 54.3411 200.098 54.7478 199.305C55.1544 198.511 55.5811 197.568 56.0278 196.475C56.4678 195.388 56.9411 194.235 57.4478 193.015C57.9611 191.788 58.5644 190.408 59.2578 188.875C59.9511 187.341 60.6544 185.925 61.3678 184.625C62.0811 183.325 62.8111 182.081 63.5578 180.895C64.3044 179.701 65.1178 178.371 65.9978 176.905C66.8778 175.438 67.6778 174.121 68.3978 172.955C69.1244 171.795 69.8944 170.508 70.7078 169.095C71.5278 167.681 72.2511 166.478 72.8778 165.485C73.5044 164.491 74.1311 163.428 74.7578 162.295C75.3778 161.161 76.1111 159.991 76.9578 158.785C77.8044 157.578 78.5811 156.455 79.2878 155.415C80.0011 154.381 80.7178 153.305 81.4378 152.185C82.1644 151.065 82.9344 149.825 83.7478 148.465C84.5544 147.111 85.4411 145.768 86.4078 144.435C87.3678 143.108 88.5178 141.575 89.8578 139.835C91.1911 138.095 92.5445 136.288 93.9178 134.415C95.2845 132.541 96.4544 130.978 97.4278 129.725C98.3944 128.471 99.5611 127.058 100.928 125.485C102.288 123.918 103.648 122.438 105.008 121.045C106.361 119.651 107.738 118.215 109.138 116.735C110.531 115.248 111.988 113.645 113.508 111.925C115.034 110.198 116.441 108.681 117.728 107.375C119.014 106.061 120.514 104.521 122.228 102.755C123.941 100.988 125.861 99.2012 127.988 97.3945C130.108 95.5945 131.898 93.8912 133.358 92.2845C134.818 90.6845 136.191 89.0679 137.478 87.4345C138.764 85.8079 139.971 84.4812 141.098 83.4545C142.224 82.4279 143.434 81.3879 144.728 80.3345C146.014 79.2812 147.471 78.2145 149.098 77.1345C150.724 76.0612 152.524 74.9445 154.498 73.7845C156.478 72.6312 158.674 71.3645 161.088 69.9845C163.501 68.6112 166.148 67.2312 169.028 65.8445C171.914 64.4579 175.008 62.7745 178.308 60.7945C181.614 58.8212 184.858 57.1079 188.038 55.6545C191.224 54.2012 194.734 52.6745 198.568 51.0745C202.401 49.4812 205.464 48.1545 207.758 47.0945C210.051 46.0279 212.334 44.9145 214.608 43.7545C216.881 42.5945 218.924 41.5345 220.738 40.5745C222.551 39.6079 224.628 38.6979 226.968 37.8445C229.314 36.9912 232.118 36.0079 235.378 34.8945C238.644 33.7812 242.504 32.6079 246.958 31.3745C251.418 30.1345 256.898 28.4979 263.398 26.4645C269.904 24.4379 274.718 23.0712 277.838 22.3645C280.964 21.6579 284.331 21.1679 287.938 20.8945C291.551 20.6079 295.794 20.3645 300.668 20.1645C305.541 19.9579 308.958 19.8479 310.918 19.8345C312.878 19.8145 314.814 19.7945 316.728 19.7745C318.641 19.7479 319.658 19.7445 319.778 19.7645C319.904 19.7779 320.024 19.8045 320.138 19.8445C320.258 19.8912 320.371 19.9512 320.478 20.0245C320.578 20.0979 320.671 20.1812 320.758 20.2745C320.838 20.3679 320.908 20.4679 320.968 20.5745C321.028 20.6879 321.071 20.8045 321.098 20.9245C321.131 21.0512 321.148 21.1745 321.148 21.2945C321.148 21.4145 321.131 21.5379 321.098 21.6645C321.071 21.7845 321.028 21.9012 320.968 22.0145C320.908 22.1212 320.838 22.2212 320.758 22.3145C320.671 22.4079 320.578 22.4912 320.478 22.5645C320.371 22.6379 320.258 22.6979 320.138 22.7445C320.024 22.7845 319.904 22.8112 319.778 22.8245C319.658 22.8445 319.598 22.8545 319.598 22.8545Z" fill="#1E1E1E"/>
<path d="M227.822 46.2425C227.822 46.2425 226.715 46.4525 224.502 46.8725C222.282 47.2925 219.835 47.9158 217.162 48.7425C214.495 49.5691 211.379 50.7058 207.812 52.1525C204.252 53.5991 200.585 54.9658 196.812 56.2524C193.039 57.5458 189.139 58.9058 185.112 60.3325C181.085 61.7658 176.349 63.7725 170.902 66.3525C165.462 68.9391 161.355 70.8958 158.582 72.2225C155.809 73.5491 152.862 75.2525 149.742 77.3325C146.615 79.4191 143.959 81.4458 141.772 83.4125C139.585 85.3791 137.245 87.5624 134.752 89.9624C132.259 92.3558 129.815 94.7258 127.422 97.0724C125.029 99.4258 122.299 101.679 119.232 103.832C116.165 105.986 113.562 107.946 111.422 109.712C109.275 111.472 107.429 113.156 105.882 114.762C104.335 116.376 102.795 118.179 101.262 120.172C99.7354 122.166 98.0921 124.469 96.3321 127.082C94.5788 129.696 92.9821 131.909 91.5421 133.722C90.1021 135.536 88.7588 137.366 87.5121 139.212C86.2588 141.052 85.1488 142.799 84.1821 144.452C83.2154 146.112 82.1954 147.956 81.1221 149.982C80.0488 152.009 79.0621 153.899 78.1621 155.652C77.2621 157.406 76.4021 159.199 75.5821 161.032C74.7621 162.866 73.7288 164.966 72.4821 167.332C71.2288 169.699 70.0054 172.042 68.8121 174.362C67.6254 176.682 66.4554 179.316 65.3021 182.262C64.1488 185.202 62.9955 188.512 61.8421 192.192C60.6888 195.872 59.7521 198.836 59.0321 201.082C58.3188 203.322 57.5888 205.586 56.8421 207.872C56.0888 210.159 55.3388 212.986 54.5921 216.352C53.8388 219.726 53.0788 223.026 52.3121 226.252C51.5454 229.479 50.4388 233.349 48.9921 237.862C47.5454 242.369 46.4088 246.012 45.5821 248.792C44.7554 251.572 43.9454 254.436 43.1521 257.382C42.3588 260.329 41.6854 263.302 41.1321 266.302C40.5788 269.296 40.0688 271.782 39.6021 273.762C39.1354 275.736 38.6988 278.116 38.2921 280.902C37.8788 283.696 37.4721 286.039 37.0721 287.932C36.6654 289.826 36.2688 291.936 35.8821 294.262C35.4954 296.589 35.2221 299.006 35.0621 301.512C34.8954 304.019 34.4388 306.742 33.6921 309.682C32.9454 312.616 32.4221 315.436 32.1221 318.142C31.8154 320.849 31.4821 323.139 31.1221 325.012C30.7621 326.892 30.5121 328.972 30.3721 331.252C30.2254 333.532 30.1221 335.386 30.0621 336.812C29.9954 338.239 29.9488 339.696 29.9221 341.182C29.8954 342.669 29.8754 344.836 29.8621 347.682C29.8554 350.529 29.9588 352.752 30.1721 354.352C30.3854 355.946 30.5421 357.442 30.6421 358.842C30.7488 360.236 31.0354 361.849 31.5021 363.682C31.9688 365.516 32.5254 367.496 33.1721 369.622C33.8121 371.749 34.5954 374.029 35.5221 376.462C36.4554 378.896 37.5654 382.086 38.8521 386.032C40.1454 389.986 41.1821 393.362 41.9621 396.162C42.7354 398.962 43.6154 401.942 44.6021 405.102C45.5888 408.269 46.8388 411.616 48.3521 415.142C49.8654 418.669 51.0588 421.409 51.9321 423.362C52.7988 425.316 53.6388 427.149 54.4521 428.862C55.2588 430.569 56.0554 432.229 56.8421 433.842C57.6288 435.456 58.6254 437.256 59.8321 439.242C61.0321 441.222 62.0054 442.869 62.7521 444.182C63.4988 445.489 64.4521 446.832 65.6121 448.212C66.7721 449.592 68.1621 451.252 69.7821 453.192C71.4021 455.139 72.6754 456.759 73.6021 458.052C74.5354 459.346 75.5254 460.702 76.5721 462.122C77.6188 463.542 78.7854 464.859 80.0721 466.072C81.3521 467.292 82.6121 468.506 83.8521 469.712C85.0854 470.926 86.2821 471.996 87.4421 472.922C88.5954 473.849 89.9454 474.712 91.4921 475.512C93.0388 476.319 94.7154 477.239 96.5221 478.272C98.3288 479.306 100.795 480.356 103.922 481.422C107.049 482.496 109.972 483.602 112.692 484.742C115.412 485.889 119.105 487.252 123.772 488.832C128.432 490.412 132.105 491.766 134.792 492.892C137.485 494.026 140.159 495.046 142.812 495.952C145.465 496.859 148.132 497.729 150.812 498.562C153.492 499.396 156.512 500.319 159.872 501.332C163.232 502.352 168.382 503.629 175.322 505.162C182.262 506.696 188.205 507.899 193.152 508.772C198.092 509.646 202.715 510.379 207.022 510.972C211.329 511.566 215.409 512.212 219.262 512.912C223.115 513.612 226.519 514.219 229.472 514.732C232.432 515.252 236.642 515.956 242.102 516.842C247.569 517.722 252.119 518.349 255.752 518.722C259.385 519.096 262.759 519.476 265.872 519.862C268.985 520.242 271.965 520.512 274.812 520.672C277.652 520.832 280.799 521.059 284.252 521.352C287.705 521.639 290.835 521.956 293.642 522.302C296.449 522.649 298.662 522.896 300.282 523.042C301.895 523.189 303.725 523.406 305.772 523.692C307.812 523.979 309.825 524.296 311.812 524.642C313.792 524.982 316.205 525.449 319.052 526.042C321.899 526.636 324.459 527.056 326.732 527.302C329.005 527.542 331.065 527.716 332.912 527.822C334.759 527.929 336.759 528.116 338.912 528.382C341.072 528.649 343.252 528.839 345.452 528.952C347.652 529.066 350.452 529.256 353.852 529.522C357.252 529.796 360.662 529.989 364.082 530.102C367.495 530.216 370.375 530.296 372.722 530.342C375.062 530.396 378.059 530.432 381.712 530.452C385.365 530.472 389.075 530.486 392.842 530.492C396.615 530.499 401.522 530.506 407.562 530.512C413.595 530.512 418.452 530.516 422.132 530.522C425.805 530.522 428.979 530.522 431.652 530.522C434.319 530.522 436.979 530.412 439.632 530.192C442.285 529.972 445.162 529.596 448.262 529.062C451.362 528.529 453.782 528.042 455.522 527.602C457.269 527.156 459.079 526.726 460.952 526.312C462.832 525.892 465.295 525.482 468.342 525.082C471.389 524.676 474.425 524.169 477.452 523.562C480.479 522.956 483.079 522.412 485.252 521.932C487.432 521.452 489.099 521.082 490.252 520.822C491.412 520.569 492.639 520.196 493.932 519.702C495.225 519.209 496.659 518.839 498.232 518.592C499.799 518.352 501.902 518.076 504.542 517.762C507.175 517.456 509.249 517.129 510.762 516.782C512.275 516.436 513.922 516.079 515.702 515.712C517.475 515.339 519.032 514.866 520.372 514.292C521.712 513.719 523.475 513.076 525.662 512.362C527.855 511.656 529.622 511.046 530.962 510.532C532.302 510.026 533.812 509.439 535.492 508.772C537.179 508.112 539.052 507.419 541.112 506.692C543.172 505.959 545.509 505.002 548.122 503.822C550.729 502.642 552.815 501.686 554.382 500.952C555.942 500.226 557.475 499.389 558.982 498.442C560.489 497.496 562.025 496.586 563.592 495.712C565.159 494.846 566.719 494.006 568.272 493.192C569.832 492.379 571.932 491.246 574.572 489.792C577.219 488.346 579.309 487.102 580.842 486.062C582.382 485.029 583.785 483.869 585.052 482.582C586.319 481.296 587.679 479.926 589.132 478.472C590.585 477.012 592.399 475.199 594.572 473.032C596.745 470.859 599.069 468.536 601.542 466.062C604.015 463.582 606.212 461.272 608.132 459.132C610.059 456.986 611.979 454.689 613.892 452.242C615.805 449.796 617.715 447.066 619.622 444.052C621.529 441.046 623.215 438.132 624.682 435.312C626.149 432.499 627.422 430.146 628.502 428.252C629.589 426.366 630.689 424.366 631.802 422.252C632.915 420.139 634.035 417.759 635.162 415.112C636.289 412.466 637.209 410.349 637.922 408.762C638.629 407.169 639.235 405.509 639.742 403.782C640.242 402.056 640.715 400.479 641.162 399.052C641.609 397.619 642.279 396.116 643.172 394.542C644.059 392.962 644.892 391.216 645.672 389.302C646.459 387.389 647.002 385.816 647.302 384.582C647.609 383.356 647.949 382.029 648.322 380.602C648.695 379.176 648.922 377.956 649.002 376.942C649.089 375.929 649.409 374.606 649.962 372.972C650.509 371.339 651.119 369.422 651.792 367.222C652.465 365.029 652.942 363.262 653.222 361.922C653.502 360.582 654.039 358.386 654.832 355.332C655.632 352.286 656.309 349.139 656.862 345.892C657.415 342.652 657.809 339.686 658.042 336.992C658.282 334.306 658.452 331.839 658.552 329.592C658.652 327.346 658.725 325.079 658.772 322.792C658.819 320.512 658.852 317.999 658.872 315.252C658.892 312.512 658.905 309.339 658.912 305.732C658.919 302.126 658.815 299.132 658.602 296.752C658.389 294.372 658.125 291.786 657.812 288.992C657.499 286.199 657.165 283.432 656.812 280.692C656.452 277.959 655.869 274.922 655.062 271.582C654.255 268.249 653.459 264.976 652.672 261.762C651.879 258.556 651.095 255.612 650.322 252.932C649.549 250.252 648.449 247.139 647.022 243.592C645.595 240.052 644.029 236.536 642.322 233.042C640.615 229.556 639.055 226.049 637.642 222.522C636.235 219.002 634.682 215.172 632.982 211.032C631.282 206.892 629.955 203.602 629.002 201.162C628.055 198.729 627.049 196.226 625.982 193.652C624.922 191.079 624.055 189.026 623.382 187.492C622.709 185.959 621.789 183.982 620.622 181.562C619.455 179.149 618.295 176.882 617.142 174.762C615.989 172.636 615.045 170.772 614.312 169.172C613.585 167.566 612.735 165.649 611.762 163.422C610.789 161.196 609.765 158.952 608.692 156.692C607.619 154.426 606.425 152.279 605.112 150.252C603.792 148.232 602.502 145.982 601.242 143.502C599.982 141.029 598.429 138.176 596.582 134.942C594.735 131.709 592.869 128.519 590.982 125.372C589.089 122.226 587.405 119.426 585.932 116.972C584.459 114.526 583.082 112.346 581.802 110.432C580.522 108.526 579.179 106.736 577.772 105.062C576.365 103.396 575.142 101.982 574.102 100.822C573.055 99.6691 571.979 98.5158 570.872 97.3624C569.772 96.2091 568.545 94.9458 567.192 93.5724C565.832 92.1924 563.235 90.2425 559.402 87.7225C555.569 85.1958 551.849 83.0658 548.242 81.3325C544.635 79.5925 541.509 78.1291 538.862 76.9425C536.209 75.7558 533.869 74.6858 531.842 73.7325C529.815 72.7791 527.589 71.6525 525.162 70.3525C522.729 69.0525 520.442 67.7925 518.302 66.5725C516.155 65.3525 513.762 64.1625 511.122 63.0025C508.482 61.8358 506.345 60.7691 504.712 59.8025C503.085 58.8291 501.399 57.9291 499.652 57.1025C497.905 56.2825 495.882 55.3624 493.582 54.3424C491.282 53.3224 489.195 52.3691 487.322 51.4824C485.442 50.6024 483.659 49.7524 481.972 48.9324C480.285 48.1124 477.975 46.9725 475.042 45.5125C472.102 44.0591 469.239 42.6958 466.452 41.4225C463.672 40.1425 461.015 38.8958 458.482 37.6824C455.955 36.4691 453.935 35.4925 452.422 34.7525C450.909 34.0125 449.409 33.3858 447.922 32.8724C446.435 32.3591 444.909 31.7591 443.342 31.0725C441.775 30.3925 439.535 29.2358 436.622 27.6024C433.715 25.9691 430.809 24.7158 427.902 23.8424C424.995 22.9691 422.569 22.2291 420.622 21.6224C418.682 21.0091 416.652 20.4691 414.532 20.0025C412.412 19.5291 410.239 19.0825 408.012 18.6625C405.779 18.2358 403.522 17.8224 401.242 17.4224C398.962 17.0224 396.239 16.6258 393.072 16.2325C389.905 15.8458 386.865 15.4558 383.952 15.0625C381.039 14.6758 377.212 14.4025 372.472 14.2425C367.732 14.0825 363.902 13.9658 360.982 13.8925C358.069 13.8258 355.202 13.6658 352.382 13.4125C349.555 13.1591 346.895 12.9791 344.402 12.8725C341.902 12.7658 339.109 12.5791 336.022 12.3124C332.935 12.0391 329.975 11.8491 327.142 11.7424C324.309 11.6291 321.845 11.5458 319.752 11.4924C317.659 11.4458 315.059 11.4125 311.952 11.3925C308.852 11.3725 305.772 11.4691 302.712 11.6825C299.645 11.8958 296.782 12.0458 294.122 12.1324C291.462 12.2258 288.899 12.2924 286.432 12.3324C283.965 12.3724 281.989 12.3991 280.502 12.4125C279.015 12.4325 277.782 12.5791 276.802 12.8524C275.829 13.1324 273.869 13.4291 270.922 13.7425C267.969 14.0491 265.422 14.2658 263.282 14.3925C261.142 14.5191 257.532 14.9358 252.452 15.6425C247.372 16.3558 243.095 17.0825 239.622 17.8225C236.149 18.5625 233.322 19.0925 231.142 19.4125C228.955 19.7325 226.765 20.1758 224.572 20.7425C222.372 21.3091 219.905 21.9358 217.172 22.6224C214.445 23.3091 211.729 24.0191 209.022 24.7525C206.315 25.4858 203.862 26.3291 201.662 27.2824C199.455 28.2424 197.095 29.2625 194.582 30.3425C192.069 31.4225 189.939 32.3058 188.192 32.9925C186.445 33.6791 184.549 34.4925 182.502 35.4325C180.462 36.3791 178.539 37.1725 176.732 37.8125C174.932 38.4591 172.565 39.4624 169.632 40.8224C166.699 42.1824 163.835 43.5891 161.042 45.0424C158.249 46.5091 155.912 47.6691 154.032 48.5224C152.145 49.3824 150.265 50.3191 148.392 51.3325C146.519 52.3391 144.629 53.3925 142.722 54.4925C140.815 55.5858 138.902 56.6991 136.982 57.8325C135.062 58.9591 133.035 60.2025 130.902 61.5625C128.769 62.9225 126.932 64.2158 125.392 65.4425C123.845 66.6625 122.185 67.9791 120.412 69.3925C118.632 70.8125 116.809 72.2658 114.942 73.7524C113.075 75.2391 111.325 76.8358 109.692 78.5424C108.052 80.2491 106.439 82.0158 104.852 83.8425C103.265 85.6758 101.909 87.2125 100.782 88.4525C99.6488 89.6925 98.4054 91.1191 97.0521 92.7325C95.6988 94.3525 94.6354 95.7158 93.8621 96.8224C93.0888 97.9358 92.0721 99.1991 90.8121 100.612C89.5454 102.019 88.2154 103.562 86.8221 105.242C85.4221 106.922 84.2054 108.446 83.1721 109.812C82.1454 111.179 81.1921 112.482 80.3121 113.722C79.4321 114.962 78.2654 117.039 76.8121 119.952C75.3588 122.872 74.2121 125.286 73.3721 127.192C72.5254 129.106 71.4754 131.469 70.2221 134.282C68.9754 137.096 67.9821 139.532 67.2421 141.592C66.5021 143.646 65.6388 146.002 64.6521 148.662C63.6654 151.329 62.8521 153.556 62.2121 155.342C61.5721 157.136 60.3388 160.522 58.5121 165.502C56.6854 170.482 55.2754 174.469 54.2821 177.462C53.2888 180.449 52.4721 183.016 51.8321 185.162C51.1921 187.316 50.7421 189.372 50.4821 191.332C50.2221 193.299 49.9188 195.169 49.5721 196.942C49.2321 198.716 48.9921 200.392 48.8521 201.972C48.7188 203.559 48.5088 205.486 48.2221 207.752C47.9354 210.012 47.7554 211.729 47.6821 212.902C47.6154 214.076 47.4688 215.096 47.2421 215.962C47.0088 216.822 46.8754 217.679 46.8421 218.532C46.8021 219.379 46.7721 220.319 46.7521 221.352C46.7321 222.392 46.6954 223.572 46.6421 224.892C46.5888 226.219 46.5554 227.499 46.5421 228.732C46.5354 229.966 46.5088 231.286 46.4621 232.692C46.4154 234.106 46.3721 235.666 46.3321 237.372C46.2988 239.079 46.3121 240.409 46.3721 241.362C46.4321 242.309 46.4921 243.326 46.5521 244.412C46.6121 245.499 46.6254 246.146 46.5921 246.352C46.5588 246.552 46.4921 246.746 46.3921 246.932C46.2921 247.119 46.1688 247.282 46.0221 247.422C45.8688 247.569 45.6988 247.686 45.5121 247.772C45.3188 247.859 45.1188 247.912 44.9121 247.932C44.7054 247.959 44.5021 247.949 44.3021 247.902C44.0954 247.856 43.9021 247.779 43.7221 247.672C43.5421 247.566 43.3854 247.432 43.2521 247.272C43.1188 247.112 43.0121 246.936 42.9321 246.742C42.8588 246.549 42.8154 246.349 42.8021 246.142C42.7954 245.936 42.8188 245.732 42.8721 245.532C42.9254 245.332 43.0121 245.146 43.1321 244.972C43.2454 244.799 43.3854 244.649 43.5521 244.522C43.7188 244.396 43.9021 244.299 44.1021 244.232C44.2954 244.166 44.4988 244.132 44.7121 244.132C44.9188 244.132 45.1221 244.166 45.3221 244.232C45.5154 244.299 45.6954 244.396 45.8621 244.522C46.0288 244.649 46.1688 244.799 46.2821 244.972C46.4021 245.146 46.4888 245.332 46.5421 245.532C46.6021 245.732 46.6254 245.936 46.6121 246.142C46.5988 246.349 46.5554 246.549 46.4821 246.742C46.4021 246.936 46.2954 247.112 46.1621 247.272C46.0288 247.432 45.8721 247.566 45.6921 247.672C45.5121 247.779 45.3188 247.856 45.1121 247.902C44.9121 247.949 44.7088 247.959 44.5021 247.932C44.2954 247.912 44.0954 247.859 43.9021 247.772C43.7154 247.686 43.5454 247.569 43.3921 247.422C43.2454 247.282 43.1221 247.119 43.0221 246.932C42.9288 246.746 42.8621 246.549 42.8221 246.342C42.7888 246.142 42.7721 246.042 42.7721 246.042C42.7721 246.042 42.8054 245.499 42.8721 244.412C42.9321 243.326 42.9921 242.306 43.0521 241.352C43.1121 240.406 43.1254 239.079 43.0921 237.372C43.0588 235.659 43.0221 234.096 42.9821 232.682C42.9488 231.262 42.9354 229.932 42.9421 228.692C42.9488 227.452 42.9454 226.149 42.9321 224.782C42.9188 223.416 42.9521 222.172 43.0321 221.052C43.1054 219.932 43.3988 218.532 43.9121 216.852C44.4254 215.179 44.7688 213.756 44.9421 212.582C45.1088 211.402 45.3321 209.699 45.6121 207.472C45.8921 205.239 46.1088 203.286 46.2621 201.612C46.4088 199.939 46.6488 198.239 46.9821 196.512C47.3154 194.786 47.6288 192.876 47.9221 190.782C48.2088 188.689 48.6754 186.556 49.3221 184.382C49.9754 182.202 50.8021 179.606 51.8021 176.592C52.8021 173.579 54.2154 169.586 56.0421 164.612C57.8621 159.639 59.0954 156.252 59.7421 154.452C60.3821 152.646 61.1954 150.416 62.1821 147.762C63.1621 145.109 64.0354 142.726 64.8021 140.612C65.5688 138.499 66.5754 136.032 67.8221 133.212C69.0688 130.399 70.1254 128.019 70.9921 126.072C71.8521 124.126 73.0421 121.639 74.5621 118.612C76.0821 115.579 77.2888 113.429 78.1821 112.162C79.0754 110.902 80.0488 109.569 81.1021 108.162C82.1554 106.762 83.3921 105.212 84.8121 103.512C86.2321 101.806 87.5388 100.286 88.7321 98.9525C89.9255 97.6258 90.9388 96.3791 91.7721 95.2124C92.5988 94.0524 93.6988 92.6491 95.0721 91.0024C96.4521 89.3558 97.6988 87.9225 98.8121 86.7025C99.9321 85.4825 101.299 83.9391 102.912 82.0724C104.532 80.2058 106.202 78.3824 107.922 76.6024C109.642 74.8224 111.435 73.1891 113.302 71.7024C115.169 70.2091 116.992 68.7558 118.772 67.3424C120.552 65.9224 122.252 64.5758 123.872 63.3025C125.485 62.0291 127.372 60.7024 129.532 59.3224C131.692 57.9491 133.735 56.6958 135.662 55.5625C137.589 54.4225 139.515 53.2991 141.442 52.1925C143.369 51.0858 145.295 50.0125 147.222 48.9725C149.149 47.9391 151.032 47.0024 152.872 46.1624C154.712 45.3224 157.049 44.1658 159.882 42.6925C162.715 41.2125 165.635 39.7758 168.642 38.3825C171.649 36.9958 174.015 35.9958 175.742 35.3825C177.469 34.7691 179.379 33.9791 181.472 33.0125C183.559 32.0458 185.462 31.2258 187.182 30.5525C188.902 29.8725 191.019 28.9925 193.532 27.9125C196.045 26.8325 198.462 25.7924 200.782 24.7924C203.102 23.7924 205.622 22.9224 208.342 22.1824C211.062 21.4424 213.785 20.7258 216.512 20.0324C219.239 19.3391 221.749 18.6958 224.042 18.1024C226.335 17.5158 228.539 17.0625 230.652 16.7425C232.779 16.4225 235.609 15.8825 239.142 15.1225C242.682 14.3558 247.025 13.6058 252.172 12.8725C257.319 12.1391 260.939 11.6991 263.032 11.5525C265.132 11.4058 267.605 11.1691 270.452 10.8425C273.299 10.5158 275.305 10.2624 276.472 10.0824C277.645 9.90245 278.975 9.80579 280.462 9.79245C281.949 9.77245 283.915 9.74245 286.362 9.70245C288.815 9.66912 291.355 9.60578 293.982 9.51245C296.615 9.42578 299.495 9.27578 302.622 9.06245C305.755 8.84245 308.879 8.74579 311.992 8.77245C315.112 8.79245 317.725 8.82578 319.832 8.87245C321.939 8.91912 324.432 8.99912 327.312 9.11245C330.185 9.23245 333.145 9.42578 336.192 9.69245C339.239 9.95245 342.032 10.1391 344.572 10.2525C347.112 10.3591 349.765 10.5358 352.532 10.7825C355.292 11.0358 358.135 11.1991 361.062 11.2725C363.989 11.3391 367.865 11.4558 372.692 11.6225C377.519 11.7958 381.382 12.0758 384.282 12.4625C387.189 12.8491 390.249 13.2425 393.462 13.6425C396.669 14.0358 399.419 14.4358 401.712 14.8424C404.005 15.2424 406.282 15.6558 408.542 16.0825C410.802 16.5158 413.025 16.9758 415.212 17.4625C417.405 17.9558 419.469 18.5058 421.402 19.1124C423.335 19.7191 425.842 20.4924 428.922 21.4324C432.002 22.3791 434.959 23.6525 437.792 25.2525C440.625 26.8458 442.795 27.9725 444.302 28.6325C445.809 29.2925 447.352 29.8991 448.932 30.4524C450.505 31.0058 452.049 31.6525 453.562 32.3925C455.075 33.1258 457.089 34.0958 459.602 35.3025C462.115 36.5091 464.779 37.7591 467.592 39.0525C470.399 40.3391 473.269 41.7091 476.202 43.1624C479.129 44.6158 481.429 45.7491 483.102 46.5625C484.782 47.3758 486.552 48.2191 488.412 49.0924C490.272 49.9658 492.362 50.9191 494.682 51.9524C497.002 52.9791 499.069 53.9258 500.882 54.7924C502.702 55.6591 504.382 56.5525 505.922 57.4725C507.455 58.3925 509.582 59.4525 512.302 60.6525C515.022 61.8525 517.442 63.0591 519.562 64.2724C521.689 65.4791 523.949 66.7225 526.342 68.0025C528.729 69.2825 530.929 70.3958 532.942 71.3424C534.949 72.2891 537.289 73.3625 539.962 74.5625C542.635 75.7625 545.825 77.2591 549.532 79.0525C553.239 80.8391 557.079 83.0525 561.052 85.6925C565.032 88.3325 567.702 90.3458 569.062 91.7325C570.429 93.1191 571.675 94.3991 572.802 95.5724C573.922 96.7458 575.015 97.9224 576.082 99.1024C577.142 100.282 578.405 101.746 579.872 103.492C581.332 105.232 582.715 107.076 584.022 109.022C585.322 110.969 586.709 113.169 588.182 115.622C589.655 118.076 591.342 120.882 593.242 124.042C595.149 127.209 597.035 130.429 598.902 133.702C600.762 136.969 602.302 139.802 603.522 142.202C604.735 144.596 606.029 146.856 607.402 148.982C608.775 151.109 610.002 153.316 611.082 155.602C612.169 157.889 613.195 160.139 614.162 162.352C615.129 164.572 615.962 166.456 616.662 168.002C617.369 169.549 618.309 171.402 619.482 173.562C620.655 175.722 621.832 178.026 623.012 180.472C624.192 182.912 625.122 184.909 625.802 186.462C626.482 188.009 627.355 190.079 628.422 192.672C629.495 195.266 630.502 197.772 631.442 200.192C632.389 202.612 633.712 205.896 635.412 210.042C637.119 214.196 638.662 218.002 640.042 221.462C641.429 224.922 642.989 228.426 644.722 231.972C646.455 235.526 648.049 239.116 649.502 242.742C650.955 246.369 652.075 249.539 652.862 252.252C653.649 254.966 654.435 257.929 655.222 261.142C656.015 264.356 656.825 267.676 657.652 271.102C658.479 274.536 659.069 277.629 659.422 280.382C659.782 283.129 660.119 285.909 660.432 288.722C660.752 291.536 661.022 294.172 661.242 296.632C661.462 299.092 661.569 302.129 661.562 305.742C661.555 309.349 661.545 312.532 661.532 315.292C661.512 318.046 661.482 320.576 661.442 322.882C661.402 325.182 661.332 327.476 661.232 329.762C661.132 332.049 660.965 334.576 660.732 337.342C660.499 340.102 660.102 343.146 659.542 346.472C658.982 349.792 658.319 352.956 657.552 355.962C656.779 358.969 656.252 361.186 655.972 362.612C655.692 364.039 655.225 365.869 654.572 368.102C653.925 370.329 653.365 372.182 652.892 373.662C652.425 375.142 652.079 376.426 651.852 377.512C651.625 378.599 651.329 379.862 650.962 381.302C650.602 382.736 650.232 384.116 649.852 385.442C649.472 386.769 648.865 388.439 648.032 390.452C647.199 392.466 646.375 394.176 645.562 395.582C644.742 396.989 644.112 398.399 643.672 399.812C643.232 401.226 642.742 402.852 642.202 404.692C641.655 406.526 641.032 408.232 640.332 409.812C639.625 411.386 638.692 413.529 637.532 416.242C636.379 418.949 635.235 421.372 634.102 423.512C632.975 425.659 631.879 427.662 630.812 429.522C629.745 431.382 628.459 433.749 626.952 436.622C625.445 439.502 623.715 442.482 621.762 445.562C619.809 448.649 617.855 451.439 615.902 453.932C613.949 456.426 611.995 458.759 610.042 460.932C608.089 463.112 605.875 465.439 603.402 467.912C600.922 470.392 598.599 472.716 596.432 474.882C594.259 477.056 592.445 478.869 590.992 480.322C589.539 481.776 588.115 483.199 586.722 484.592C585.322 485.986 583.819 487.222 582.212 488.302C580.605 489.389 578.472 490.659 575.812 492.112C573.152 493.572 571.055 494.702 569.522 495.502C567.989 496.309 566.459 497.132 564.932 497.972C563.405 498.819 561.842 499.746 560.242 500.752C558.642 501.752 557.055 502.619 555.482 503.352C553.909 504.086 551.782 505.056 549.102 506.262C546.422 507.476 544.069 508.442 542.042 509.162C540.009 509.882 538.145 510.576 536.452 511.242C534.759 511.909 533.222 512.506 531.842 513.032C530.462 513.559 528.715 514.169 526.602 514.862C524.482 515.549 522.672 516.206 521.172 516.832C519.679 517.466 518.049 517.969 516.282 518.342C514.515 518.722 512.832 519.096 511.232 519.462C509.625 519.836 507.519 520.182 504.912 520.502C502.305 520.829 500.315 521.096 498.942 521.302C497.569 521.509 496.155 521.899 494.702 522.472C493.242 523.039 491.942 523.399 490.802 523.552C489.655 523.699 487.985 524.016 485.792 524.502C483.599 524.989 480.962 525.539 477.882 526.152C474.802 526.772 471.775 527.276 468.802 527.662C465.829 528.056 463.415 528.456 461.562 528.862C459.709 529.276 457.879 529.712 456.072 530.172C454.259 530.626 451.765 531.126 448.592 531.672C445.412 532.212 442.462 532.592 439.742 532.812C437.015 533.039 434.319 533.152 431.652 533.152C428.979 533.152 425.805 533.149 422.132 533.142C418.452 533.142 413.592 533.142 407.552 533.142C401.512 533.136 396.605 533.129 392.832 533.122C389.059 533.109 385.339 533.092 381.672 533.072C378.005 533.052 374.995 533.019 372.642 532.972C370.295 532.919 367.392 532.836 363.932 532.722C360.479 532.609 357.062 532.416 353.682 532.142C350.309 531.876 347.489 531.682 345.222 531.562C342.955 531.449 340.772 531.259 338.672 530.992C336.579 530.732 334.585 530.549 332.692 530.442C330.799 530.329 328.675 530.146 326.322 529.892C323.969 529.632 321.382 529.209 318.562 528.622C315.742 528.036 313.355 527.572 311.402 527.232C309.449 526.892 307.472 526.582 305.472 526.302C303.465 526.022 301.642 525.806 300.002 525.652C298.355 525.506 296.145 525.262 293.372 524.922C290.592 524.576 287.489 524.259 284.062 523.972C280.642 523.679 277.479 523.449 274.572 523.282C271.672 523.122 268.675 522.852 265.582 522.472C262.482 522.086 259.092 521.706 255.412 521.332C251.725 520.952 247.145 520.319 241.672 519.432C236.192 518.546 231.972 517.842 229.012 517.322C226.052 516.802 222.665 516.196 218.852 515.502C215.039 514.809 210.959 514.166 206.612 513.572C202.272 512.972 197.612 512.232 192.632 511.352C187.659 510.472 181.669 509.256 174.662 507.702C167.655 506.156 162.469 504.872 159.102 503.852C155.742 502.826 152.709 501.896 150.002 501.062C147.295 500.222 144.585 499.336 141.872 498.402C139.165 497.476 136.495 496.459 133.862 495.352C131.235 494.239 127.559 492.882 122.832 491.282C118.112 489.682 114.422 488.319 111.762 487.192C109.095 486.072 106.125 484.946 102.852 483.812C99.5721 482.672 97.0421 481.596 95.2621 480.582C93.4754 479.562 91.7421 478.602 90.0621 477.702C88.3754 476.809 86.9221 475.869 85.7021 474.882C84.4821 473.902 83.2554 472.809 82.0221 471.602C80.7954 470.402 79.4921 469.139 78.1121 467.812C76.7254 466.486 75.5054 465.106 74.4521 463.672C73.3921 462.239 72.4188 460.899 71.5321 459.652C70.6388 458.412 69.3821 456.819 67.7621 454.872C66.1421 452.932 64.7088 451.212 63.4621 449.712C62.2154 448.206 61.2254 446.806 60.4921 445.512C59.7521 444.219 58.7621 442.549 57.5221 440.502C56.2821 438.449 55.2654 436.609 54.4721 434.982C53.6788 433.362 52.8721 431.686 52.0521 429.952C51.2388 428.226 50.3921 426.379 49.5121 424.412C48.6388 422.446 47.4288 419.659 45.8821 416.052C44.3354 412.439 43.0654 409.039 42.0721 405.852C41.0721 402.659 40.1921 399.682 39.4321 396.922C38.6654 394.162 37.6421 390.829 36.3621 386.922C35.0821 383.009 33.9654 379.809 33.0121 377.322C32.0588 374.829 31.2554 372.499 30.6021 370.332C29.9421 368.172 29.3654 366.096 28.8721 364.102C28.3721 362.116 28.0821 360.449 28.0021 359.102C27.9221 357.762 27.7721 356.232 27.5521 354.512C27.3321 352.799 27.2288 350.512 27.2421 347.652C27.2488 344.792 27.2688 342.609 27.3021 341.102C27.3288 339.589 27.3721 338.112 27.4321 336.672C27.4988 335.226 27.6121 333.309 27.7721 330.922C27.9254 328.529 28.1788 326.429 28.5321 324.622C28.8788 322.816 29.2154 320.499 29.5421 317.672C29.8621 314.846 30.3854 312.042 31.1121 309.262C31.8321 306.482 32.2788 303.796 32.4521 301.202C32.6254 298.616 32.9088 296.139 33.3021 293.772C33.6954 291.406 34.0888 289.302 34.4821 287.462C34.8821 285.622 35.2921 283.272 35.7121 280.412C36.1388 277.552 36.5788 275.156 37.0321 273.222C37.4854 271.289 37.9988 268.789 38.5721 265.722C39.1388 262.656 39.8221 259.636 40.6221 256.662C41.4221 253.696 42.2388 250.812 43.0721 248.012C43.9054 245.212 45.0354 241.592 46.4621 237.152C47.8888 232.712 48.9854 228.882 49.7521 225.662C50.5188 222.442 51.2888 219.109 52.0621 215.662C52.8354 212.209 53.5954 209.342 54.3421 207.062C55.0888 204.782 55.8188 202.522 56.5321 200.282C57.2454 198.042 58.1888 195.056 59.3621 191.322C60.5354 187.582 61.7188 184.202 62.9121 181.182C64.0988 178.156 65.2888 175.479 66.4821 173.152C67.6821 170.819 68.8954 168.496 70.1221 166.182C71.3421 163.869 72.3721 161.772 73.2121 159.892C74.0521 158.019 74.9254 156.199 75.8321 154.432C76.7388 152.672 77.7388 150.762 78.8321 148.702C79.9188 146.642 80.9621 144.759 81.9621 143.052C82.9621 141.346 84.1054 139.546 85.3921 137.652C86.6788 135.759 88.0221 133.932 89.4221 132.172C90.8154 130.412 92.4088 128.202 94.2021 125.542C95.9888 122.889 97.6788 120.526 99.2721 118.452C100.865 116.386 102.472 114.516 104.092 112.842C105.719 111.162 107.629 109.419 109.822 107.612C112.015 105.806 114.592 103.872 117.552 101.812C120.512 99.7458 123.189 97.5358 125.582 95.1824C127.982 92.8224 130.439 90.4358 132.952 88.0225C135.465 85.6025 137.862 83.3691 140.142 81.3224C142.429 79.2691 145.185 77.1691 148.412 75.0225C151.645 72.8691 154.649 71.1258 157.422 69.7924C160.195 68.4591 164.345 66.4791 169.872 63.8525C175.392 61.2258 180.169 59.1891 184.202 57.7425C188.235 56.3025 192.112 54.9358 195.832 53.6425C199.552 52.3558 203.225 50.9625 206.852 49.4625C210.479 47.9691 213.672 46.7791 216.432 45.8925C219.199 45.0191 221.689 44.3491 223.902 43.8825C226.115 43.4158 227.285 43.1791 227.412 43.1725C227.525 43.1591 227.645 43.1658 227.772 43.1925C227.899 43.2125 228.019 43.2458 228.132 43.2924C228.245 43.3458 228.352 43.4091 228.452 43.4824C228.552 43.5558 228.642 43.6425 228.722 43.7425C228.802 43.8425 228.869 43.9491 228.922 44.0625C228.975 44.1758 229.015 44.2924 229.042 44.4124C229.062 44.5391 229.069 44.6591 229.062 44.7724C229.062 44.8991 229.042 45.0225 229.002 45.1425C228.969 45.2625 228.919 45.3791 228.852 45.4925C228.792 45.5991 228.719 45.6958 228.632 45.7825C228.545 45.8758 228.449 45.9558 228.342 46.0224C228.235 46.0891 228.122 46.1424 228.002 46.1824C227.882 46.2224 227.822 46.2425 227.822 46.2425Z" fill="#1E1E1E"/>
</g>
<defs>
<clipPath id="clip0_24_35">
<rect width="690.441" height="571.725" fill="white"/>
</clipPath>
</defs>
</svg>
